<svg version="1" xmlns="http://www.w3.org/2000/svg" width="1365.333" height="1365.333" viewBox="0 0 1024.000000 1024.000000"><path d="M486.8 7.5c-.2.1-4.6.6-9.8.9-17.2 1.3-20.5 1.6-23 2.1-1.4.2-5.2.7-8.5 1.1-3.3.3-6.2.8-6.5.9-.3.2-3.3.7-6.5 1-3.3.4-6.2.9-6.5 1-.3.2-2.6.6-5 1-2.5.3-8.5 1.5-13.5 2.7-4.9 1.1-9.8 2.1-10.7 2.3-19.8 4.1-57 16.4-82.8 27.5C202.8 95.6 111.3 183.4 58.1 293.5c-3.5 7.1-7.2 15.2-8.2 18-1.1 2.7-2.4 5.9-2.9 7-5.9 12.7-20.5 56.4-22.6 67.5-.3 1.4-1.2 5.1-2 8.3-.8 3.2-1.9 7.9-2.4 10.5-1.4 6.9-2.9 14.3-3.5 17.7-.2 1.6-.7 3.9-.9 5-.5 2.3-2.3 15-3.1 21.2-.3 2.4-.7 6-1 8-.2 2.1-.7 7.4-1.1 11.8-.3 4.4-.8 9.8-.9 12-.6 6.2-.6 56.3 0 62.5.2 3 .7 8.6 1 12.5 1.1 13.6 5.3 43.7 7.1 51.5.3 1.4.8 3.8 1.1 5.5.3 2.3 4.1 18.5 6.7 29 6.7 26.6 21.2 65.3 35.1 93.3 8.8 18 26.8 49.2 28.7 50 .4.2.8.8.8 1.2 0 1.2 6.2 10.4 7.2 10.8.4.2.8.8.8 1.3 0 .9 17.9 25.2 22.9 31.1 22.1 26.2 43.7 48.5 62.7 64.8 5.1 4.3 23.9 19.4 26.8 21.5 1.5 1.1 4.7 3.4 7 5.1 7 5.3 30.1 20.5 37.8 24.9 30.7 17.8 52.6 28.2 81.3 38.9 20.8 7.8 51.7 17.1 66.5 20 1.4.2 5 1 8 1.6 3 .6 6.6 1.3 8 1.5 1.4.3 3.6.7 5 1 1.3.2 4 .7 6 1 2 .3 4.5.7 5.6.9 1.2.2 4.5.7 7.4 1.1 2.9.4 6 .8 6.9 1 .9.1 5.4.6 10.1 1 4.7.4 9.3.9 10.3 1.1 3.4.6 30.3 1.7 43.7 1.7 17.1 0 38.2-1.1 53-2.8 3.6-.4 7.9-.9 9.5-1.1 10.8-1.2 42.1-6.7 51-9 3.3-.9 6.7-1.7 7.5-1.9 8-1.6 32.1-8.8 44.5-13.2 46.7-16.6 85-36.4 126.5-65.4 5.2-3.7 30.3-23 31-23.9.3-.4 3.9-3.5 8-7 8.8-7.5 41.5-40.1 48-47.9 2.5-3 5-5.9 5.5-6.5 8.7-9.7 24.1-30.1 35-46.6 33.5-50.6 55.4-101 71-163 .7-2.7 6.3-31.4 7-35.5.8-5 1.1-7 3-22.8 3.9-31.3 4-86.1.2-115.7-.4-2.5-.9-6.8-1.3-9.5-.3-2.8-1.2-8.8-2-13.5-.8-4.7-1.7-10.1-2-12-.2-1.9-.9-5.1-1.4-7-.5-1.9-1.2-5.1-1.5-7.1-1.5-9.2-8.3-34.1-14.4-52.7-15.6-47.2-38-91.2-67.5-132.7-23.3-32.7-52-64.2-83.6-91.6-4.7-4.1-25.5-20.5-32.5-25.6-7.7-5.6-36.1-24.3-37-24.3-.3 0-2.4-1.2-4.8-2.7-16.6-10.5-51.1-26.8-79-37.2-26.9-10-66.4-20.6-87.7-23.6-2.5-.3-5.2-.8-6-1-1.4-.3-5-.8-15-2.1-1.9-.2-4.6-.6-6-.9-1.4-.2-6.3-.7-11-1.1-4.7-.4-10.1-.9-12-1.1-4.2-.5-62.7-1.2-63.2-.8zM286 280.5V314l-3.3 3.7c-1.8 2.1-8 9.2-13.7 15.8-5.8 6.6-10.9 12.5-11.5 13.1-.5.6-1.9 2.2-3 3.5-1.2 1.3-7 8-13 15-6.1 6.9-13.2 15.1-16 18.4-2.7 3.2-5.7 6.5-6.5 7.4-.9.9-4.3 4.7-7.5 8.6-3.3 3.8-7.1 8.2-8.5 9.6-1.4 1.5-4.5 5.1-7 8-2.5 2.9-9.4 10.9-15.4 17.8s-11 12.8-11.2 13c-.2.2-.4-44.9-.4-100.2V247h117v33.5zm334.4-32.3c-.6 1-8.3 9.7-31.9 36.3-3.4 3.8-7.7 8.8-9.6 11-1.9 2.1-4.1 4.6-4.9 5.5-.8.9-4.4 4.9-8 9-3.6 4.1-10.5 11.9-15.4 17.4-16.4 18.6-21.2 24-37.6 42.6-14.7 16.7-26 29.4-31.5 35.6-1.1 1.2-4.7 5.3-8 9s-9.8 11.1-14.4 16.4c-4.6 5.2-11.2 12.6-14.5 16.5-3.4 3.8-7.4 8.3-9 10-1.5 1.6-4.7 5.2-7 7.8-4.1 4.9-4.9 5.9-11.6 13.3-1.9 2.1-5.3 5.9-7.5 8.4-5.9 6.8-15.1 17.2-17.2 19.6-4.9 5.7-14 15.9-15.8 17.8-1.1 1.2-4.9 5.5-8.5 9.6-3.6 4.1-6.7 7.7-7 8-.3.3-3.9 4.3-8 9s-8 9-8.5 9.6c-.6.6-3.5 3.9-6.5 7.4-3 3.4-6 6.8-6.5 7.4-.6.6-4.4 4.9-8.5 9.6-4.1 4.7-7.7 8.7-8 9-.3.3-5.4 6.1-11.5 13-6 6.9-11.4 13-12 13.6-1.7 1.8-6.4 7.2-18 20.4-6 6.9-12.6 14.3-14.6 16.5-3.5 3.9-19.5 22-24.8 28-4.8 5.5-17.6 20-18.1 20.5-.3.3-3.4 3.9-7 8s-7.2 8.1-8 9c-.8.9-3.1 3.4-5 5.7-1.9 2.2-6.4 7.2-10 11.3-3.6 4-7 8-7.7 8.9-.7.9-1.3 1.1-1.4.6-.5-3.3-2.3-146.5-2-155 .1-1.1 1.1-3.2 2.4-4.5 1.2-1.4 5.3-6.1 9.1-10.5 3.9-4.4 7.5-8.5 8-9 1-.9 8.8-9.8 16.6-18.9 1.4-1.6 3.2-3.6 4-4.5.9-.9 6.1-6.8 11.5-13.1 5.5-6.3 10.7-12.2 11.5-13 2.2-2.3 13.4-15.2 21.3-24.4 2.3-2.7 5.2-5.8 6.3-7 1.2-1.2 7.2-8 13.5-15.1 6.2-7.2 11.8-13.5 12.3-14.1 1.5-1.6 10.6-11.8 21.1-23.9 4.9-5.5 11.6-13.2 15.1-17 3.4-3.9 7.2-8.2 8.3-9.7 1.2-1.5 3.6-4.2 5.4-6 1.7-1.9 5.5-6 8.2-9.2 2.8-3.3 5.5-6.4 6-7 .6-.6 4.4-4.9 8.4-9.6 4.1-4.7 8-9 8.5-9.5 1-.9 9.3-10.4 16.6-18.9 1.4-1.6 3.4-3.9 4.5-5 1.6-1.7 14.7-16.6 47.5-54 1.4-1.5 3.4-3.8 4.5-5 2.2-2.5 12.1-13.7 15.5-17.6 1.2-1.4 4.9-5.6 8.3-9.4 3.4-3.8 7-7.9 8-9.2l1.8-2.4h71c54.2 0 70.8.3 70.3 1.2zm137.3.5c28 12.3 40 20.2 57.8 37.8 11.3 11.1 23.7 27.2 31.4 40.5 7.1 12.4 7.5 10.6-3.4 16.7-3.8 2.2-17.8 10.2-31 17.8-31.3 18-30.3 17.4-35.5 20.3-2.5 1.3-5.1 2.9-5.8 3.5-.7.5-1.4.8-1.6.6-.1-.2-2.5-3.7-5.2-7.8-12.1-18.3-29.8-31.4-49.9-36.7-9-2.4-34.2-2.9-41.1-.8l-4.5 1.3 4-4.7c2.2-2.6 5.2-6.1 6.8-7.8 1.5-1.7 4.2-4.6 5.8-6.5 37.2-41.9 67.7-75.9 68-75.9.2 0 2.1.8 4.2 1.7zM629 413c2.8 7 5.1 10.3 12.5 17.5 7.7 7.4 8.2 7.8 16.1 12.6 10.9 6.7 25.5 12.8 42.4 17.8 5.8 1.7 11.4 3.3 12.5 3.5 4.1.9 25.4 7.6 36 11.4 54 19.4 90 47.7 108.8 85.7 3.9 7.9 9.2 21.1 10.2 25.5.2.8 1 4.4 1.9 8 .8 3.6 1.8 8.3 2.2 10.4.3 2.1.7 4.8 1 5.9.5 2.8 1.7 21.2 1.7 26.2 0 4.9-1.2 23.8-1.8 28.1-2 14.5-8.8 35.1-16.3 49.2-7.6 14.5-23.1 33.8-34.3 42.7-1.3 1.1-4.5 3.6-6.9 5.6-9.4 7.6-28.9 18.8-42.5 24.4-5.4 2.2-21.1 7.5-22.1 7.5-.5-.1-2.5-2.4-4.4-5.1-1.9-2.8-4-5.6-4.6-6.2-.5-.7-3-3.9-5.4-7.2-3.6-4.8-42.2-56.6-51.6-69.2l-2.4-3.1h7.3c17.2.2 31.8-3.7 44.5-11.9 7-4.4 16.8-14.3 20.5-20.6 12.8-21.7 12.2-50.8-1.4-70.3-14.1-20.2-36.6-32.8-78.2-44-26.5-7-48.4-15.2-67.2-24.9-10.4-5.4-24.3-13.6-27.9-16.6-.6-.5-3.6-2.8-6.6-5.1-7.3-5.6-18.1-16-24.1-23.1l-4.9-5.8 6.2-7.2c3.5-3.9 7-7.8 7.8-8.7 4.2-4.5 9.3-10.4 16.5-18.5 4.4-5 8.2-9.2 8.5-9.5.3-.3 5.9-6.6 12.5-14s12.2-13.7 12.5-14c.7-.7 13.1-14.8 15.6-17.8l1.9-2.3.7 8.9c.4 5.1 1.6 11.1 2.8 14.2zM492.6 597.5c13.7 20.1 29 42.5 33.9 49.8 5 7.3 14.4 21.1 21 30.7 6.5 9.6 12.2 17.7 12.5 18 .4.3.9 1 1.1 1.5.4 1 13.6 20.3 48.7 71.4 8.5 12.4 15.6 23.1 15.9 23.8.4 1.1-11.8 1.3-68.9 1.3h-69.5l-4.6-6.8c-3.9-5.8-15.7-22.9-18.7-27.2-.6-.8-8.7-12.5-18-26-9.2-13.5-17.2-25-17.7-25.5-.4-.6-3.2-4.6-6.2-9s-11.9-17.3-19.8-28.7c-7.9-11.4-14.3-21.1-14.3-21.5 0-.4 1.7-2.6 3.8-4.8 2-2.3 6.6-7.4 10.2-11.4 3.6-4.1 7.2-8.1 8-9 1.5-1.6 12.7-14.1 18.6-21 1.6-1.8 4.3-4.8 5.9-6.5 1.7-1.7 6.2-6.7 10-11.1 3.9-4.4 7.5-8.5 8.1-9 .6-.6 3.9-4.3 7.4-8.3 3.4-3.9 6.6-7.2 7-7.2.3 0 11.9 16.4 25.6 36.5z"/></svg>