<?xml version="1.0" encoding="UTF-8"?>
<svg width="195px" height="198px" viewBox="0 0 195 198" version="1.1" xmlns="http://www.w3.org/2000/svg" xmlns:xlink="http://www.w3.org/1999/xlink">
    <!-- Generator: Sketch 42 (36781) - http://www.bohemiancoding.com/sketch -->
    <title>Page 1</title>
    <desc>Created with Sketch.</desc>
    <defs></defs>
    <g id="Welcome" stroke="none" stroke-width="1" fill="none" fill-rule="evenodd">
        <g id="Desktop" transform="translate(-663.000000, -453.000000)">
            <g id="Page-1" style="mix-blend-mode: luminosity;" transform="translate(663.000000, 452.000000)">
                <polygon id="Fill-1" fill="#FFFFFF" points="49.2283389 170.291501 97.8016611 198.345264 97.8016611 142.237737 49.2283389 114.182665"></polygon>
                <polygon id="Fill-2" fill="#F2F2F2" points="97.8017919 86.1272 49.2284698 114.182272 97.8017919 142.237345 146.375114 114.182272"></polygon>
                <polygon id="Fill-3" fill="#D9D8D7" points="97.8017919 142.237607 97.8017919 198.345133 146.372497 170.29137 146.372497 114.182534"></polygon>
                <polygon id="Fill-4" fill="#F15424" points="146.372889 114.182011 97.8021846 86.1269382 97.8021846 30.0194118 146.372889 58.073175"></polygon>
                <polygon id="Fill-5" fill="#242D3C" points="97.8017919 30.0196737 146.372497 58.0734368 194.948436 30.0196737 146.372497 1.96329211"></polygon>
                <polygon id="Fill-6" fill="#FFCA40" points="146.372889 58.0735678 146.372889 114.182403 194.946211 86.1273309 194.946211 30.0198046"></polygon>
                <g id="Group-29" transform="translate(0.000000, 0.654605)" fill="#242D3C">
                    <path d="M1.3088557,85.0948875 L48.573453,112.393236 L48.573453,57.7965388 L1.3088557,30.4981901 L1.3088557,85.0948875 Z M49.2278154,114.181618 C49.1152651,114.181618 49.001406,114.152815 48.9006342,114.093901 L0.327312081,86.0401375 C0.125768456,85.9223086 0.000130872483,85.7062888 0.000130872483,85.4719401 L0.000130872483,29.3644138 C0.000130872483,29.1300651 0.125768456,28.9140454 0.327312081,28.7975257 C0.528855705,28.6810059 0.780130872,28.6810059 0.981674497,28.7975257 L49.5549966,56.8512888 C49.757849,56.9691178 49.8821779,57.1851375 49.8821779,57.418177 L49.8821779,113.527013 C49.8821779,113.761361 49.757849,113.977381 49.5549966,114.093901 C49.4542248,114.152815 49.3403658,114.181618 49.2278154,114.181618 L49.2278154,114.181618 Z" id="Fill-7"></path>
                    <path d="M1.96321812,29.3645447 L49.2304329,56.6628934 L96.4963389,29.3645447 L49.2304329,2.06488684 L1.96321812,29.3645447 Z M49.2304329,58.0729132 C49.1178826,58.0729132 49.0040235,58.0441105 48.9032517,57.9851961 L0.327312081,29.9314329 C0.125768456,29.8149132 0.000130872483,29.5988934 0.000130872483,29.3645447 C0.000130872483,29.1301961 0.125768456,28.9141763 0.327312081,28.7976566 L48.9032517,0.742584211 C49.106104,0.626064474 49.3560705,0.626064474 49.5576141,0.742584211 L98.132245,28.7976566 C98.3337886,28.9141763 98.4594262,29.1301961 98.4594262,29.3645447 C98.4594262,29.5988934 98.3337886,29.8149132 98.132245,29.9314329 L49.5576141,57.9851961 C49.4568423,58.0441105 49.3429832,58.0729132 49.2304329,58.0729132 L49.2304329,58.0729132 Z" id="Fill-9"></path>
                    <path d="M97.8017919,86.1272 C97.6905503,86.1272 97.578,86.0997066 97.4746107,86.0394829 L94.0745436,84.0756671 C93.7617584,83.8949961 93.654443,83.4943776 93.8363557,83.1814763 C94.0143423,82.868575 94.4161208,82.7625289 94.728906,82.9418908 L98.1289732,84.9057066 C98.4417584,85.0863776 98.5490738,85.4869961 98.3684698,85.7998974 C98.2480671,86.0106803 98.0268926,86.1272 97.8017919,86.1272" id="Fill-11"></path>
                    <path d="M64.563453,66.9295914 C64.4522114,66.9295914 64.3396611,66.902098 64.2362718,66.8418743 L58.2684866,63.394723 C57.9543926,63.214052 57.8470772,62.8134336 58.0289899,62.5005322 C58.2082852,62.1876309 58.608755,62.0815849 58.922849,62.2609467 L64.8906342,65.708098 C65.2034195,65.8887691 65.3107349,66.2893875 65.1301309,66.6022888 C65.0097282,66.8117625 64.7885537,66.9295914 64.563453,66.9295914 M76.4977148,73.8225849 C76.3864732,73.8225849 76.2739228,73.7950914 76.1705336,73.7348678 L70.204057,70.2877164 C69.8899631,70.1070454 69.7826477,69.7077362 69.9645604,69.3935257 C70.1451644,69.0806243 70.5456342,68.9745783 70.8584195,69.1539401 L76.824896,72.6010914 C77.1376812,72.7817625 77.2463054,73.1823809 77.0643926,73.4952822 C76.9439899,73.7060651 76.7228154,73.8225849 76.4977148,73.8225849 M88.4332852,80.7168875 C88.3220436,80.7168875 88.2094933,80.6880849 88.106104,80.6291704 L82.1396275,77.1820191 C81.8268423,77.001348 81.7182181,76.6007296 81.9001309,76.2878283 C82.0807349,75.9736178 82.4812047,75.8701901 82.7939899,76.0482428 L88.7604664,79.4953941 C89.0745604,79.6760651 89.1818758,80.0753743 88.9999631,80.3895849 C88.8795604,80.5990586 88.6583859,80.7168875 88.4332852,80.7168875" id="Fill-13"></path>
                    <path d="M52.6277517,60.0356816 C52.5165101,60.0356816 52.4039597,60.0081882 52.3005705,59.9479645 L49.2276846,58.172675 L46.1561074,59.9479645 C45.8433221,60.1273263 45.4415436,60.0225895 45.2622483,59.7083789 C45.0803356,59.3954776 45.1889597,58.9948592 45.501745,58.8141882 L48.9005034,56.8503724 C49.1033557,56.7338526 49.3533221,56.7338526 49.5548658,56.8503724 L52.9549329,58.8141882 C53.2677181,58.9948592 53.3750336,59.3954776 53.1944295,59.7083789 C53.0740268,59.9191618 52.8528523,60.0356816 52.6277517,60.0356816" id="Fill-15"></path>
                    <path d="M33.8928322,66.9295914 C33.6677315,66.9295914 33.446557,66.8130717 33.3261544,66.6022888 C33.1455503,66.2893875 33.2528658,65.8887691 33.565651,65.708098 L39.5334362,62.2609467 C39.843604,62.0789664 40.2453826,62.1863217 40.4259866,62.5005322 C40.6078993,62.8134336 40.5005839,63.214052 40.1877987,63.394723 L34.2200134,66.8418743 C34.1166242,66.902098 34.0040738,66.9295914 33.8928322,66.9295914 M21.9572617,73.8238941 C21.7321611,73.8238941 21.5109866,73.7060651 21.3905839,73.4965914 C21.2099799,73.1823809 21.3172953,72.7830717 21.6300805,72.6010914 L27.596557,69.1552493 C27.9093423,68.9745783 28.3111208,69.0793151 28.4904161,69.3948349 C28.6723289,69.7077362 28.5650134,70.1083546 28.2509195,70.2890257 L22.284443,73.736177 C22.1810537,73.7950914 22.0685034,73.8238941 21.9572617,73.8238941 M10.0216913,80.7168875 C9.7965906,80.7168875 9.57541611,80.5990586 9.45501342,80.3895849 C9.27310067,80.0753743 9.38041611,79.6760651 9.69451007,79.4953941 L15.6622953,76.0482428 C15.9750805,75.8675717 16.3768591,75.9723086 16.5561544,76.2878283 C16.7380671,76.6007296 16.6307517,77.001348 16.3166577,77.1820191 L10.3488725,80.6291704 C10.2454832,80.6880849 10.1329329,80.7168875 10.0216913,80.7168875" id="Fill-17"></path>
                    <path d="M0.654493289,86.1272 C0.429392617,86.1272 0.208218121,86.0106803 0.0878154362,85.7998974 C-0.0927885906,85.4869961 0.0145268456,85.0863776 0.327312081,84.9057066 L3.72737919,82.9418908 C4.0388557,82.7612197 4.44063423,82.8672658 4.61992953,83.1814763 C4.80184228,83.4943776 4.69452685,83.8949961 4.38174161,84.0756671 L0.981674497,86.0394829 C0.878285235,86.0997066 0.765734899,86.1272 0.654493289,86.1272" id="Fill-19"></path>
                    <path d="M49.8825705,57.7964079 L49.8825705,112.393105 L97.1471678,85.0947566 L97.1471678,30.4980592 L49.8825705,57.7964079 Z M49.2282081,114.181487 C49.1156577,114.181487 49.0017987,114.152684 48.9010268,114.09377 C48.6994832,113.97725 48.5738456,113.76123 48.5738456,113.526882 L48.5738456,57.4180461 C48.5738456,57.1850066 48.6994832,56.9689868 48.9010268,56.8511579 L97.474349,28.7973947 C97.6772013,28.680875 97.9271678,28.680875 98.1287114,28.7973947 C98.3315638,28.9139145 98.4558926,29.1312434 98.4558926,29.3642829 L98.4558926,85.4731184 C98.4558926,85.7061579 98.3315638,85.9221776 98.1287114,86.0400066 L49.5553893,114.09377 C49.4546174,114.152684 49.3407584,114.181487 49.2282081,114.181487 L49.2282081,114.181487 Z" id="Fill-21"></path>
                    <path d="M49.2306946,5.89144737 C48.8694866,5.89144737 48.5763322,5.59818421 48.5763322,5.23684211 L48.5763322,1.30921053 C48.5763322,0.947868421 48.8694866,0.654605263 49.2306946,0.654605263 C49.5919027,0.654605263 49.885057,0.947868421 49.885057,1.30921053 L49.885057,5.23684211 C49.885057,5.59818421 49.5919027,5.89144737 49.2306946,5.89144737" id="Fill-23"></path>
                    <path d="M49.2306946,19.677827 C48.8694866,19.677827 48.5763322,19.3845638 48.5763322,19.0232217 L48.5763322,12.1302283 C48.5763322,11.767577 48.8694866,11.475623 49.2306946,11.475623 C49.5919027,11.475623 49.885057,11.767577 49.885057,12.1302283 L49.885057,19.0232217 C49.885057,19.3845638 49.5919027,19.677827 49.2306946,19.677827 M49.2293859,33.465123 C48.8681779,33.465123 48.5750235,33.1718599 48.5750235,32.8105178 L48.5750235,25.9175243 C48.5750235,25.554873 48.8681779,25.2629191 49.2293859,25.2629191 C49.590594,25.2629191 49.8837483,25.554873 49.8837483,25.9175243 L49.8837483,32.8105178 C49.8837483,33.1718599 49.590594,33.465123 49.2293859,33.465123 M49.2280772,47.2511099 L49.2280772,47.2511099 C48.8668691,47.2511099 48.5737148,46.9578467 48.5737148,46.5965046 L48.5750235,39.7035112 C48.5750235,39.3421691 48.8681779,39.0489059 49.2293859,39.0489059 C49.590594,39.0489059 49.8837483,39.3421691 49.8837483,39.7035112 L49.8824396,46.5965046 C49.8824396,46.9591559 49.5892852,47.2511099 49.2280772,47.2511099" id="Fill-25"></path>
                    <path d="M49.2282081,58.073175 C48.867,58.073175 48.5738456,57.7799118 48.5738456,57.4185697 L48.5738456,53.4909382 C48.5738456,53.1295961 48.867,52.8363329 49.2282081,52.8363329 C49.5894161,52.8363329 49.8825705,53.1295961 49.8825705,53.4909382 L49.8825705,57.4185697 C49.8825705,57.7799118 49.5894161,58.073175 49.2282081,58.073175" id="Fill-27"></path>
                </g>
            </g>
        </g>
    </g>
</svg>