<?xml version="1.0" encoding="UTF-8"?>
<svg width="207px" height="238px" viewBox="0 0 207 238" version="1.1" xmlns="http://www.w3.org/2000/svg" xmlns:xlink="http://www.w3.org/1999/xlink">
    <!-- Generator: Sketch 42 (36781) - http://www.bohemiancoding.com/sketch -->
    <title>Group 5</title>
    <desc>Created with Sketch.</desc>
    <defs></defs>
    <g id="Welcome" stroke="none" stroke-width="1" fill="none" fill-rule="evenodd">
        <g id="Desktop" transform="translate(-422.000000, -1028.000000)">
            <g id="Group-5" transform="translate(422.000000, 1028.000000)">
                <g id="Group-4">
                    <polygon id="Fill-1" fill="#FFFFFF" points="1.42108547e-14 178.281529 102.975953 237.745767 102.975953 118.817291 1.42108547e-14 59.3502785"></polygon>
                    <polygon id="Fill-2" fill="#F0F0F0" points="102.975953 0 0 59.4670128 102.975953 118.934026 205.951906 59.4670128"></polygon>
                    <path d="M102.975953,0 L0,59.4670128 L102.975953,118.934026 C102.975953,118.934026 102.820509,89.0837849 102.820509,59.3502785 C102.820509,29.6167721 102.975953,0 102.975953,0 Z" id="Fill-2" fill="#D9D8D7" opacity="0.565840127"></path>
                    <polygon id="Fill-3" fill="#E4E3E2" points="103.880515 118.817291 103.880515 237.745767 206.850919 178.281529 206.850919 59.3502785"></polygon>
                </g>
                <path d="M44.7848822,173.779546 L53.515421,178.894246 L53.515421,188.432493 L44.7848822,183.201207 L44.7848822,173.779546 Z M35.3523906,116.926146 C38.9206688,114.815479 43.8196659,115.313951 50.0495287,118.451704 C55.8114206,121.353756 60.4252521,125.413827 63.8911617,130.657071 C67.3570713,135.933693 69.0900002,141.317769 69.0900002,146.784429 C69.0900002,150.095663 68.4538617,152.440133 67.1815658,153.812517 C65.9092699,155.177713 63.3427804,156.789754 59.4820203,158.622353 C56.6741948,159.925791 54.8535228,161.323977 54.0199496,162.830268 C53.1863764,164.331956 52.769596,167.005025 52.769596,170.853006 L44.9603704,166.361274 C44.9603704,162.041917 45.4575821,158.841301 46.4520203,156.753743 C47.4464585,154.658738 49.6254154,152.82358 52.9889563,151.229399 L56.4987206,149.513208 C57.5516552,149.039059 58.3998398,148.405223 59.0432998,147.61245 C60.2132271,146.235954 60.7981819,144.464382 60.7981819,142.30256 C60.7981819,139.27601 59.9426854,136.20494 58.2316668,133.097166 C56.5206481,129.999937 53.6909289,127.441185 49.7424243,125.412923 C44.8579779,122.903888 41.4798635,123.032088 39.6079798,125.782624 C38.5550453,127.29862 37.9554665,129.959636 37.8092256,133.769195 L30,129.595825 C30,123.20979 31.7841124,118.996647 35.3523906,116.926146 Z" id="?" fill-opacity="0.596778759" fill="#C1C0B8"></path>
            </g>
        </g>
    </g>
</svg>