<?xml version="1.0" encoding="UTF-8"?>
<svg width="16px" height="30px" viewBox="0 0 16 30" version="1.1" xmlns="http://www.w3.org/2000/svg" xmlns:xlink="http://www.w3.org/1999/xlink">
    <!-- Generator: Sketch 42 (36781) - http://www.bohemiancoding.com/sketch -->
    <title>Page 1</title>
    <desc>Created with Sketch.</desc>
    <defs>
        <polygon id="path-1" points="7.8001 29.3 15.6 29.3 15.6 0 7.8001 0 0.0002 0 0.0002 29.3"></polygon>
    </defs>
    <g id="Welcome" stroke="none" stroke-width="1" fill="none" fill-rule="evenodd">
        <g id="Desktop" transform="translate(-569.000000, -1491.000000)">
            <g id="Page-1" transform="translate(569.000000, 1491.000000)">
                <mask id="mask-2" fill="white">
                    <use xlink:href="#path-1"></use>
                </mask>
                <g id="Clip-2"></g>
                <path d="M10.8002,29.3 L10.8002,16.2 L15.6002,16.2 L15.6002,10.6 L10.8002,10.6 L10.8002,7.7 C10.8002,7 11.1002,6.4 12.0002,6.4 L15.6002,6.4 L15.6002,0 L11.6002,0 C7.5002,0 4.3002,3.4 4.3002,7.8 L4.3002,10.6 L0.0002,10.6 L0.0002,16.2 L4.3002,16.2 L4.3002,29.3 L10.8002,29.3 Z" id="Fill-1" fill="#25306C" mask="url(#mask-2)"></path>
            </g>
        </g>
    </g>
</svg>