<?xml version="1.0" encoding="UTF-8"?>
<svg width="29px" height="31px" viewBox="0 0 29 31" version="1.1" xmlns="http://www.w3.org/2000/svg" xmlns:xlink="http://www.w3.org/1999/xlink">
    <!-- Generator: Sketch 42 (36781) - http://www.bohemiancoding.com/sketch -->
    <title>Page 1</title>
    <desc>Created with Sketch.</desc>
    <defs></defs>
    <g id="Welcome" stroke="none" stroke-width="1" fill="none" fill-rule="evenodd">
        <g id="Desktop" transform="translate(-444.000000, -1489.000000)" fill="#25306C">
            <path d="M463.366601,1519.94 C463.965589,1519.94 464.451644,1519.4617 464.456073,1518.86271 C464.463823,1517.79206 464.474895,1516.14014 464.474895,1514.23688 C464.474895,1512.29709 463.810583,1511.02825 463.064339,1510.38719 C467.695701,1509.87235 472.556251,1508.11525 472.556251,1500.128 C472.556251,1497.85938 471.751326,1496.00373 470.41938,1494.54999 C470.633067,1494.02408 471.346096,1491.91046 470.212336,1489.04838 C470.212336,1489.04838 468.469624,1488.48925 464.50036,1491.17972 C462.840687,1490.71802 461.061438,1490.48773 459.296583,1490.47998 C457.528405,1490.48773 455.750264,1490.71802 454.091698,1491.17972 C450.120219,1488.48925 448.375293,1489.04838 448.375293,1489.04838 C447.243748,1491.91046 447.956776,1494.02408 448.170463,1494.54999 C446.840732,1496.00373 446.031379,1497.85938 446.031379,1500.128 C446.031379,1508.09532 450.884178,1509.87899 455.501147,1510.40269 C454.906587,1510.92307 454.369602,1511.83872 454.180273,1513.18284 C452.995583,1513.71429 449.985142,1514.63215 448.130605,1511.45563 C448.130605,1511.45563 447.032275,1509.45937 444.946336,1509.31322 C444.946336,1509.31322 442.915755,1509.28665 444.803508,1510.57652 C444.803508,1510.57652 446.166455,1511.21537 447.111993,1513.61686 C447.111993,1513.61686 448.332113,1517.6603 454.114949,1516.40365 C454.120485,1517.38351 454.128235,1518.22608 454.134878,1518.86271 C454.140414,1519.46059 454.626469,1519.94 455.22435,1519.94 L463.366601,1519.94 Z" id="Page-1"></path>
        </g>
    </g>
</svg>