<?xml version="1.0" encoding="UTF-8"?>
<svg width="31px" height="30px" viewBox="0 0 31 30" version="1.1" xmlns="http://www.w3.org/2000/svg" xmlns:xlink="http://www.w3.org/1999/xlink">
    <!-- Generator: Sketch 42 (36781) - http://www.bohemiancoding.com/sketch -->
    <title>Page 1</title>
    <desc>Created with Sketch.</desc>
    <defs>
        <polygon id="path-1" points="20.4201429 0.367571429 20.4201429 20.6666667 10.3581333 20.6666667 0.29612381 20.6666667 0.29612381 0.367571429"></polygon>
    </defs>
    <g id="Welcome" stroke="none" stroke-width="1" fill="none" fill-rule="evenodd">
        <g id="Desktop" transform="translate(-506.000000, -1490.000000)">
            <g id="Page-1" transform="translate(506.000000, 1489.000000)">
                <polygon id="Fill-1" fill="#25306C" points="0.389714286 30.8714238 6.98238095 30.8714238 6.98238095 11.0373286 0.389714286 11.0373286"></polygon>
                <g id="Group-7" transform="translate(0.000000, 1.347614)">
                    <path d="M3.7293,0.12857619 C1.47515714,0.12857619 0.000442857142,1.60919524 0.000442857142,3.55629048 C0.000442857142,5.4591 1.43087143,6.98252857 3.64220476,6.98252857 L3.68501429,6.98252857 L3.68649048,6.98252857 C5.98491905,6.98252857 7.41534762,5.4591 7.41534762,3.55629048 C7.3725381,1.60919524 5.98491905,0.12857619 3.7293,0.12857619" id="Fill-2" fill="#25306C"></path>
                    <g id="Group-6" transform="translate(10.333333, 8.857143)">
                        <mask id="mask-2" fill="white">
                            <use xlink:href="#path-1"></use>
                        </mask>
                        <g id="Clip-5"></g>
                        <path d="M12.8304571,0.367571429 C9.3333619,0.367571429 7.76564762,2.28809524 6.89026667,3.63880952 L6.89026667,0.832571429 L0.29612381,0.832571429 C0.383219048,2.69404762 0.29612381,20.6666667 0.29612381,20.6666667 L6.88879048,20.6666667 L6.88879048,9.59080952 C6.88879048,8.99738095 6.93307619,8.40542857 7.10579048,7.9817619 C7.5826,6.79785714 8.6676,5.57114286 10.489219,5.57114286 C12.8747429,5.57114286 13.8283619,7.38980952 13.8283619,10.0572857 L13.8283619,20.6666667 L20.4210286,20.6666667 L20.4210286,9.29409524 C20.4210286,3.20333333 17.1675048,0.367571429 12.8304571,0.367571429" id="Fill-4" fill="#25306C" mask="url(#mask-2)"></path>
                    </g>
                </g>
            </g>
        </g>
    </g>
</svg>