<?xml version="1.0" encoding="UTF-8"?>
<svg width="242px" height="183px" viewBox="0 0 242 183" version="1.1" xmlns="http://www.w3.org/2000/svg" xmlns:xlink="http://www.w3.org/1999/xlink">
    <!-- Generator: Sketch 42 (36781) - http://www.bohemiancoding.com/sketch -->
    <title>Page 1</title>
    <desc>Created with Sketch.</desc>
    <defs>
        <polygon id="path-1" points="0 182.630453 241.632717 182.630453 241.632717 0.230031276 0 0.230031276"></polygon>
    </defs>
    <g id="Welcome" stroke="none" stroke-width="1" fill="none" fill-rule="evenodd">
        <g id="Desktop" transform="translate(-105.000000, -846.000000)">
            <g id="Page-1" style="mix-blend-mode: luminosity;" transform="translate(105.000000, 846.000000)">
                <path d="M138.198891,182.88108 L241.632855,182.88108 L241.632855,79.6500807 L138.198891,182.88108 Z M226.17711,116.905877 L226.17711,167.454499 L175.525687,167.454499 L226.17711,116.905877 Z" id="Fill-1" fill="#FFCA40"></path>
                <polygon id="Fill-2" fill="#242D3C" points="238.8635 178.232836 241.632717 178.232836 241.632717 177.205676 238.8635 177.205676"></polygon>
                <polygon id="Fill-3" fill="#242D3C" points="238.8635 173.072382 241.632717 173.072382 241.632717 172.045221 238.8635 172.045221"></polygon>
                <polygon id="Fill-4" fill="#242D3C" points="238.8635 167.910558 241.632717 167.910558 241.632717 166.882028 238.8635 166.882028"></polygon>
                <polygon id="Fill-5" fill="#242D3C" points="238.8635 162.747365 241.632717 162.747365 241.632717 161.720204 238.8635 161.720204"></polygon>
                <polygon id="Fill-6" fill="#242D3C" points="238.8635 157.58691 241.632717 157.58691 241.632717 156.55975 238.8635 156.55975"></polygon>
                <polygon id="Fill-7" fill="#242D3C" points="238.8635 152.426456 241.632717 152.426456 241.632717 151.399295 238.8635 151.399295"></polygon>
                <polygon id="Fill-8" fill="#242D3C" points="238.8635 147.266002 241.632717 147.266002 241.632717 146.237472 238.8635 146.237472"></polygon>
                <polygon id="Fill-9" fill="#242D3C" points="238.8635 142.102808 241.632717 142.102808 241.632717 141.075648 238.8635 141.075648"></polygon>
                <polygon id="Fill-10" fill="#242D3C" points="238.8635 136.940984 241.632717 136.940984 241.632717 135.913824 238.8635 135.913824"></polygon>
                <polygon id="Fill-11" fill="#242D3C" points="238.8635 131.78053 241.632717 131.78053 241.632717 130.752 238.8635 130.752"></polygon>
                <polygon id="Fill-12" fill="#242D3C" points="238.8635 126.618706 241.632717 126.618706 241.632717 125.591546 238.8635 125.591546"></polygon>
                <polygon id="Fill-13" fill="#242D3C" points="238.8635 121.455513 241.632717 121.455513 241.632717 120.428352 238.8635 120.428352"></polygon>
                <polygon id="Fill-14" fill="#242D3C" points="238.8635 116.295058 241.632717 116.295058 241.632717 115.266528 238.8635 115.266528"></polygon>
                <polygon id="Fill-15" fill="#242D3C" points="238.8635 111.131865 241.632717 111.131865 241.632717 110.104705 238.8635 110.104705"></polygon>
                <polygon id="Fill-16" fill="#242D3C" points="238.8635 105.97278 241.632717 105.97278 241.632717 104.94562 238.8635 104.94562"></polygon>
                <polygon id="Fill-17" fill="#242D3C" points="238.8635 100.809587 241.632717 100.809587 241.632717 99.7810568 238.8635 99.7810568"></polygon>
                <polygon id="Fill-18" fill="#242D3C" points="238.8635 95.6491325 241.632717 95.6491325 241.632717 94.6206025 238.8635 94.6206025"></polygon>
                <polygon id="Fill-19" fill="#242D3C" points="238.8635 90.4873086 241.632717 90.4873086 241.632717 89.4601481 238.8635 89.4601481"></polygon>
                <polygon id="Fill-20" fill="#242D3C" points="238.8635 85.3254848 241.632717 85.3254848 241.632717 84.2983243 238.8635 84.2983243"></polygon>
                <polygon id="Fill-21" fill="#16C6CC" points="0 160.850542 219.561316 160.850542 219.561316 48.1573399 0 48.1573399"></polygon>
                <g id="Group-69" transform="translate(0.000000, 0.250627)">
                    <path d="M109.780658,152.820064 L11.8041653,152.820064 L11.8041653,37.0714021 L98.934329,37.0714021 C101.703546,37.0714021 104.494719,38.13691 106.606625,40.2473824 C108.724019,42.3578548 109.780658,45.1325577 109.780658,47.905891 L109.780658,152.820064 Z" id="Fill-22" fill="#FFFFFF"></path>
                    <path d="M207.756465,152.820064 L109.781344,152.820064 L109.781344,47.905891 C109.781344,45.1325577 110.840728,42.3578548 112.954005,40.2473824 C115.070027,38.13691 117.857084,37.0714021 120.627673,37.0714021 L207.756465,37.0714021 L207.756465,152.820064 Z" id="Fill-24" fill="#FFFFFF"></path>
                    <path d="M106.607311,145.16046 C104.494033,143.049987 101.70286,141.992697 98.9350151,141.992697 L11.8048514,141.992697 L11.8048514,152.820338 L109.781344,152.820338 C109.781344,150.045635 108.724705,147.272302 106.607311,145.16046" id="Fill-26" fill="#D9D8D7"></path>
                    <path d="M112.951398,145.16046 C115.06742,143.049987 117.854477,141.992697 120.62781,141.992697 L207.756602,141.992697 L207.756602,152.820338 L109.780109,152.820338 C109.780109,150.045635 110.840865,147.272302 112.951398,145.16046" id="Fill-28" fill="#D9D8D7"></path>
                    <path d="M77.1030729,81.4685656 C77.1030729,92.1469261 68.4276564,100.796987 57.7322758,100.796987 C47.041012,100.796987 38.3752013,92.1469261 38.3752013,81.4685656 C38.3752013,70.802531 47.041012,62.1469919 57.7322758,62.1469919 C68.4276564,62.1469919 77.1030729,70.802531 77.1030729,81.4685656" id="Fill-30" fill="#FFCA40"></path>
                    <mask id="mask-2" fill="white">
                        <use xlink:href="#path-1"></use>
                    </mask>
                    <g id="Clip-33"></g>
                    <polygon id="Fill-32" fill="#CCCBCA" mask="url(#mask-2)" points="53.4631805 116.923681 62.0137215 116.923681 62.0137215 112.657541 53.4631805 112.657541"></polygon>
                    <polygon id="Fill-34" fill="#FFFFFF" mask="url(#mask-2)" points="49.416391 112.657541 66.0467884 112.657541 66.0467884 98.8867424 49.416391 98.8867424"></polygon>
                    <polygon id="Fill-35" fill="#3E4959" mask="url(#mask-2)" points="49.416391 112.657541 66.0467884 112.657541 66.0467884 98.8867424 49.416391 98.8867424"></polygon>
                    <polygon id="Fill-36" fill="#242D3C" mask="url(#mask-2)" points="47.9700308 102.321567 67.5013821 102.321567 67.5013821 100.95202 47.9700308 100.95202"></polygon>
                    <polygon id="Fill-37" fill="#242D3C" mask="url(#mask-2)" points="47.9727753 105.081205 67.5013821 105.081205 67.5013821 103.711658 47.9727753 103.711658"></polygon>
                    <polygon id="Fill-38" fill="#242D3C" mask="url(#mask-2)" points="47.9727753 107.832626 67.5013821 107.832626 67.5013821 106.463078 47.9727753 106.463078"></polygon>
                    <polygon id="Fill-39" fill="#242D3C" mask="url(#mask-2)" points="47.9727753 110.585416 67.5013821 110.585416 67.5013821 109.215868 47.9727753 109.215868"></polygon>
                    <path d="M57.7347459,78.5060978 C56.0990141,78.5060978 54.7665513,79.8345587 54.7665513,81.4684286 C54.7665513,83.1050377 56.0990141,84.4376072 57.7347459,84.4376072 C59.3759667,84.4376072 60.711174,83.1050377 60.711174,81.4684286 C60.711174,79.8345587 59.3759667,78.5060978 57.7347459,78.5060978 M57.7347459,85.8071546 C55.3415275,85.8071546 53.3942931,83.8610278 53.3942931,81.4684286 C53.3942931,79.0799381 55.3415275,77.1365505 57.7347459,77.1365505 C60.132081,77.1365505 62.0834322,79.0799381 62.0834322,81.4684286 C62.0834322,83.8610278 60.132081,85.8071546 57.7347459,85.8071546" id="Fill-40" fill="#242D3C" mask="url(#mask-2)"></path>
                    <polygon id="Fill-41" fill="#242D3C" mask="url(#mask-2)" points="57.0519102 98.8874272 57.0491657 85.122107 58.4214239 85.122107 58.4241684 98.8874272"></polygon>
                    <polygon id="Fill-42" fill="#F15424" mask="url(#mask-2)" points="134.475817 123.771417 144.804805 123.771417 144.804805 113.461465 134.475817 113.461465"></polygon>
                    <polygon id="Fill-43" fill="#FFCA40" mask="url(#mask-2)" points="166.987359 123.771965 156.656999 123.771965 156.656999 113.462013"></polygon>
                    <path d="M189.167306,118.617537 C189.167306,121.463456 186.852306,123.772513 184.002126,123.772513 C181.150573,123.772513 178.838318,121.463456 178.838318,118.617537 C178.838318,115.770248 181.150573,113.461191 184.002126,113.461191 C186.852306,113.461191 189.167306,115.770248 189.167306,118.617537" id="Fill-44" fill="#16C6CC" mask="url(#mask-2)"></path>
                    <path d="M169.471284,70.5669689 C169.471284,79.0020109 162.62097,85.8428998 154.171977,85.8428998 C145.717494,85.8428998 138.867181,79.0020109 138.867181,70.5669689 C138.867181,62.1332965 145.717494,55.2951467 154.171977,55.2951467 C162.62097,55.2951467 169.471284,62.1332965 169.471284,70.5669689" id="Fill-45" fill="#16C6CC" mask="url(#mask-2)"></path>
                    <polygon id="Fill-46" fill="#F15424" mask="url(#mask-2)" points="154.171839 101.114996 184.778687 101.114996 184.778687 70.5658733 154.171839 70.5658733"></polygon>
                    <path d="M154.17129,85.8433106 C162.620284,85.8433106 169.470597,79.0024217 169.470597,70.5673798 L154.17129,70.5673798 L154.17129,85.8433106 Z" id="Fill-47" fill="#FFFFFF" mask="url(#mask-2)"></path>
                    <polygon id="Fill-48" fill="#CCCBCA" mask="url(#mask-2)" points="105.075185 42.2970469 114.491621 42.2970469 114.491621 37.0722239 105.075185 37.0722239"></polygon>
                    <path d="M114.491072,70.309494 L114.491072,177.940849 C114.491072,180.530663 112.380538,182.630179 109.781481,182.630179 C107.185169,182.630179 105.074636,180.530663 105.074636,177.940849 L105.074636,70.309494 L114.491072,70.309494 Z" id="Fill-49" fill="#FF6D3B" mask="url(#mask-2)"></path>
                    <path d="M114.491072,177.940712 L114.491072,70.309357 L109.781481,70.309357 L109.781481,182.630042 C112.380538,182.630042 114.491072,180.531895 114.491072,177.940712" id="Fill-50" fill="#F15424" mask="url(#mask-2)"></path>
                    <path d="M122.95516,28.6238973 L122.95516,28.6238973 L109.781481,0.23044214 L96.6119192,28.6238973 L96.6091747,28.6252668 L96.6174082,28.6252668 C101.281714,28.6280059 105.062285,32.3956306 105.074636,37.0493524 L105.074636,37.0712652 L114.491072,37.0712652 L114.489699,37.0493524 C114.503422,32.3956306 118.283993,28.6280059 122.945555,28.6252668 L122.95516,28.6252668 L122.95516,28.6238973 Z" id="Fill-51" fill="#FFFFFF" mask="url(#mask-2)"></path>
                    <polygon id="Fill-52" fill="#3E4959" mask="url(#mask-2)" points="110.308703 18.0031947 109.253436 18.0004556 109.253436 0.230579095 110.308703 0.230579095"></polygon>
                    <path d="M115.453985,42.296636 C115.565138,42.296636 115.676291,42.3363529 115.761371,42.4226344 C115.845079,42.5075463 115.886247,42.6198492 115.886247,42.729413 L115.886247,69.8779496 C115.886247,69.9875134 115.845079,70.0998163 115.761371,70.1860978 C115.676291,70.2682706 115.565138,70.309357 115.453985,70.309357 L104.109526,70.309357 C103.999746,70.309357 103.887221,70.2682706 103.803513,70.1860978 C103.718433,70.0998163 103.675893,69.9875134 103.675893,69.8779496 L103.675893,42.729413 C103.675893,42.6198492 103.718433,42.5075463 103.803513,42.4226344 C103.887221,42.3363529 103.999746,42.296636 104.109526,42.296636 L115.453985,42.296636 Z" id="Fill-53" fill="#3E4959" mask="url(#mask-2)"></path>
                    <polygon id="Fill-54" fill="#131A26" mask="url(#mask-2)" points="103.676853 69.8783605 115.885835 69.8783605 115.885835 42.7298239 103.676853 42.7298239"></polygon>
                    <polygon id="Fill-55" fill="#3E4959" mask="url(#mask-2)" points="115.162655 69.8783605 115.522186 69.8783605 115.522186 42.7298239 115.162655 42.7298239"></polygon>
                    <polygon id="Fill-56" fill="#3E4959" mask="url(#mask-2)" points="114.304993 69.8783605 114.665897 69.8783605 114.665897 42.7298239 114.304993 42.7298239"></polygon>
                    <polygon id="Fill-57" fill="#3E4959" mask="url(#mask-2)" points="113.451449 69.8783605 113.81098 69.8783605 113.81098 42.7298239 113.451449 42.7298239"></polygon>
                    <polygon id="Fill-58" fill="#3E4959" mask="url(#mask-2)" points="112.59516 69.8783605 112.954691 69.8783605 112.954691 42.7298239 112.59516 42.7298239"></polygon>
                    <polygon id="Fill-59" fill="#3E4959" mask="url(#mask-2)" points="111.740243 69.8783605 112.099774 69.8783605 112.099774 42.7298239 111.740243 42.7298239"></polygon>
                    <polygon id="Fill-60" fill="#3E4959" mask="url(#mask-2)" points="110.883954 69.8783605 111.244858 69.8783605 111.244858 42.7298239 110.883954 42.7298239"></polygon>
                    <polygon id="Fill-61" fill="#3E4959" mask="url(#mask-2)" points="110.029037 69.8783605 110.388568 69.8783605 110.388568 42.7298239 110.029037 42.7298239"></polygon>
                    <polygon id="Fill-62" fill="#3E4959" mask="url(#mask-2)" points="109.17412 69.8783605 109.533652 69.8783605 109.533652 42.7298239 109.17412 42.7298239"></polygon>
                    <polygon id="Fill-63" fill="#3E4959" mask="url(#mask-2)" points="108.319203 69.8783605 108.678735 69.8783605 108.678735 42.7298239 108.319203 42.7298239"></polygon>
                    <polygon id="Fill-64" fill="#3E4959" mask="url(#mask-2)" points="107.462914 69.8783605 107.823818 69.8783605 107.823818 42.7298239 107.462914 42.7298239"></polygon>
                    <polygon id="Fill-65" fill="#3E4959" mask="url(#mask-2)" points="106.607997 69.8783605 106.968901 69.8783605 106.968901 42.7298239 106.607997 42.7298239"></polygon>
                    <polygon id="Fill-66" fill="#3E4959" mask="url(#mask-2)" points="105.751708 69.8783605 106.11124 69.8783605 106.11124 42.7298239 105.751708 42.7298239"></polygon>
                    <polygon id="Fill-67" fill="#3E4959" mask="url(#mask-2)" points="104.896791 69.8783605 105.25495 69.8783605 105.25495 42.7298239 104.896791 42.7298239"></polygon>
                    <polygon id="Fill-68" fill="#3E4959" mask="url(#mask-2)" points="104.041874 69.8783605 104.401406 69.8783605 104.401406 42.7298239 104.041874 42.7298239"></polygon>
                </g>
            </g>
        </g>
    </g>
</svg>